<!--?xml version="1.0" encoding="utf-8"?-->
<!-- Svg Vector Icons : http://www.onlinewebfonts.com/icon -->

<svg version="1.1" xmlns="http://www.w3.org/2000/svg" xmlns:xlink="http://www.w3.org/1999/xlink" x="0px" y="0px" viewBox="0 0 256 256" enable-background="new 0 0 256 256" xml:space="preserve">
<metadata> Svg Vector Icons : http://www.onlinewebfonts.com/icon </metadata>
<g><g><g><path fill="#ffc107" data-title="Layer 0" xs="0" d="M10,128v123.1h97.5H205V128V4.9h-97.5H10V128z M169,45.9V51h-61.6H45.9v-5.1v-5.1h61.6H169V45.9z M169,76.7v5.1h-61.6H45.9v-5.1v-5.1h61.6H169V76.7z M169,107.5v5.1h-61.6H45.9v-5.1v-5.1h61.6H169V107.5z M169,138.3v5.1h-61.6H45.9v-5.1v-5.1h61.6H169V138.3z M169,169v5.1h-61.6H45.9V169v-5.1h61.6H169V169z M169,199.8v5.1h-61.6H45.9v-5.1v-5.1h61.6H169V199.8z"/><path fill="#ffc107" data-title="Layer 1" xs="1" d="M215.2,87v20.5h15.4H246V87V66.4h-15.4h-15.4V87z"/><path fill="#030303" data-title="Layer 2" xs="2" d="M215.2,158.8V205h15.4H246v-46.2v-46.2h-15.4h-15.4V158.8z"/><path fill="#030303" data-title="Layer 3" xs="3" d="M215.3,211.2c0.2,0.6,3.6,8.9,7.6,18.3c5,11.8,7.4,16.9,7.8,16.3c1.6-3,14.6-33.6,14.6-34.6c0-1.1-1-1.2-15.1-1.2C216.1,210.1,215.1,210.2,215.3,211.2z"/></g></g></g>
</svg>