<!--?xml version="1.0" encoding="utf-8"?-->
<!-- Svg Vector Icons : http://www.onlinewebfonts.com/icon -->

<svg version="1.1" xmlns="http://www.w3.org/2000/svg" xmlns:xlink="http://www.w3.org/1999/xlink" x="0px" y="0px" viewBox="0 0 256 256" enable-background="new 0 0 256 256" xml:space="preserve">
<metadata> Svg Vector Icons : http://www.onlinewebfonts.com/icon </metadata>
<g><g><g><path fill="#c40215" data-title="Layer 0" xs="0" d="M117.2,10.3c-22.7,2.4-42.9,10.3-60.6,23.5C50.8,38.2,40.8,47.9,36,53.9c-13,16.1-21.6,35.7-24.9,56.8c-1.3,8.6-1.4,24.9-0.2,33.3c3,20.4,10.8,39.2,23,55.6c4.1,5.5,13.9,15.7,19.5,20.2c13.3,10.8,29.7,19,46.4,23.1c10,2.4,16.8,3.2,28.2,3.2c11.7,0,18.5-0.8,28.9-3.5c9-2.3,14.5-4.3,23.5-8.7c12.5-6.1,22.1-13.2,32.3-23.6c9.5-9.7,15.7-18.7,21.5-30.6c5.5-11.4,8.8-21.9,10.7-34.2c1.3-8.6,1.4-24.9,0.2-33.2c-3-20.4-10.8-39.2-23-55.6c-4.1-5.5-13.9-15.7-19.5-20.2c-16.3-13.2-36.3-22.1-57.3-25.2C138.3,10.1,123.5,9.6,117.2,10.3z M137.1,39.9c10.5,1.1,19.9,3.8,29.2,8.3c44.5,21.5,63,74.9,41.1,119c-8.8,17.8-22.5,31.4-40.3,40.3c-44.1,21.9-97.5,3.4-119-41.1c-21.2-44-2.7-96.9,41.5-118.2C104.4,41,121.2,38.1,137.1,39.9z"/><path fill="#c40215" data-title="Layer 1" xs="1" d="M113.5,70.9c0.2,1.6,7.2,71.2,7.2,71.8c0,0,3.3,0.1,7.4,0.1c4.1,0,7.4-0.1,7.4-0.2c0-0.7,7-70.1,7.2-71.7l0.3-1.9H128h-14.9L113.5,70.9z"/><path fill="#c40215" data-title="Layer 2" xs="2" d="M124.5,158c-2.3,0.6-6.2,2.9-7.4,4.3c-0.6,0.8-1.7,2.4-2.4,3.7c-1,2-1.2,3-1.2,6.3c0,3.6,0.1,4.2,1.5,6.8c2.8,5.1,7.1,7.7,13,7.7c8.4,0,14.5-6.2,14.5-14.5c0-5.8-2.6-10.2-7.6-12.9C132,157.9,127.4,157.2,124.5,158z"/></g></g></g>
</svg>