<!--?xml version="1.0" encoding="utf-8"?-->
<!-- Svg Vector Icons : http://www.onlinewebfonts.com/icon -->

<svg version="1.1" xmlns="http://www.w3.org/2000/svg" xmlns:xlink="http://www.w3.org/1999/xlink" x="0px" y="0px" viewBox="0 0 256 256" enable-background="new 0 0 256 256" xml:space="preserve">
<metadata> Svg Vector Icons : http://www.onlinewebfonts.com/icon </metadata>
<g><g><g><path fill="#070707" data-title="Layer 0" xs="0" d="M86.2,11.1l-1.3,1.1l-0.1,13.1l-0.1,13.1l1.2,1.5l1.2,1.4h19.3h19.4l1.1-1.2l1.2-1.1V25.9V12.7l-1.3-1.3l-1.3-1.3h-19H87.5L86.2,11.1z"/><path fill="#1d1c1c" data-title="Layer 1" xs="1" d="M58.5,23c-1,1.1-1,1.3-1,14.2c0,7.3,0.1,13.6,0.3,14c0.8,2.1,0,2.1,49,2.1h46.1l1.3-1.1l1.3-1.1V37.8V24.4l-1.1-1.2l-1.1-1.2h-9.5c-12.7,0-11.6-1.2-11.7,12.8l-0.1,10.5l-25.5,0.1L81,45.5V35.4c0-10.6-0.3-12.4-2.1-13.1c-0.4-0.1-5-0.3-10.1-0.3C59.6,22,59.5,22,58.5,23z"/><path fill="#ffc107" data-title="Layer 2" xs="2" d="M23.3,34.9L22,36.2v99.7v99.7l1.3,1.3l1.3,1.3H81h56.4l-1.7-2c-9.5-11.2-14.7-24.2-15.4-38.6c-0.3-6.8,0.5-14.2,2.1-19.4c0.5-1.5,0.7-2.9,0.6-3c-0.1-0.1-17.1-0.2-37.7-0.2c-41.9,0-39.1,0.2-39.7-3.3c-0.2-1.3,0-1.9,0.9-3l1.2-1.3l38.3-0.1c25.1,0,38.6,0,39.2,0.4c0.8,0.4,1.1,0,2.7-2.9c1.9-3.4,5.3-8.3,8-11.5l1.4-1.8H92.7c-47.2,0-45.5,0-46.6-2.2c-0.9-1.6-0.6-2.9,0.8-4.3l1.4-1.3h49.1l49.1,0l2.5-1.6c4.1-2.7,10.5-5.7,15.3-7.2c7-2.2,11.7-2.9,19.7-2.7l6.9,0.1V84.2c0-37.2-0.1-48.4-0.6-48.9c-1.3-1.7-2.4-1.8-15.3-1.8h-12.8l-1.3,1.3l-1.3,1.3v10.4V57h-53h-53V46.6V36.2L52,34.9l-1.3-1.3h-13h-13L23.3,34.9z M103,73.9c1.2,0.9,1.8,3.5,1.1,4.8c-1.3,2.4-1.2,2.4-29.8,2.3l-26.6-0.1l-1.2-1.3c-0.9-1.1-1.1-1.7-0.9-3c0.6-3.5-1-3.3,29.3-3.3C98.5,73.2,102.1,73.3,103,73.9z M166.1,97.8c1.7,1.7,1.6,4-0.3,5.5l-1.4,1.2h-58.1H48.2l-1.3-1.3c-0.7-0.7-1.3-1.8-1.3-2.4c0-1.2,1.2-3.5,1.9-3.8c0.3-0.1,26.9-0.3,59.1-0.3l58.5,0L166.1,97.8z M107.1,121.4c1.6,1.5,1.6,4,0,5.5l-1.1,1.2H77.1H48.2l-1.3-1.3c-0.8-0.8-1.3-1.8-1.3-2.6s0.6-1.8,1.3-2.6l1.3-1.3h28.9h28.9L107.1,121.4z M103.2,192.1c1.5,1.2,1.5,4.2,0,5.7l-1.1,1.1H75H47.7l-1.1-1.3c-1.4-1.7-1.4-3.7,0-5.2l1.1-1.2h27.2C100.9,191.2,102.2,191.3,103.2,192.1z"/><path fill="#1d1c1c" data-title="Layer 3" xs="3" d="M175,144.4c-19.5,3-35.8,17.7-41.2,37.2c-1.6,5.8-2.1,16.6-0.9,22.7c6.8,36.2,48.3,53.5,78.9,32.9c3.9-2.6,10.4-9.1,13.1-13c13.7-19.9,11.9-46.4-4.3-63.8C208.5,147.6,192,141.8,175,144.4z M192.5,152.7c14.6,3.5,26.6,14.3,31.4,28.3c3.4,10.1,2.9,22.2-1.5,31.7c-8,17.3-26.3,27.6-44.7,25.2c-18.6-2.5-33.2-16.1-37-34.6c-1.1-5.3-0.7-14.9,0.7-19.9c4.7-16.6,18.4-28.6,35.9-31.4C180.7,151.5,188.9,151.8,192.5,152.7z"/><path fill="#c40215" data-title="Layer 4" xs="4" d="M164.7,174.7c-1.5,0.8-2.1,1.8-2.1,3.6c0,1.5,0.6,2.3,7.5,9.1l7.5,7.5l-7.5,7.5c-6.5,6.5-7.5,7.7-7.5,8.9c0,2.1,0.4,2.9,1.9,3.6c2.4,1.2,3.5,0.6,11.2-7.2l7.4-7.4l7.6,7.6c8.5,8.4,9.1,8.8,11.6,6.3c1.4-1.4,1.7-2.7,0.8-4.3c-0.3-0.6-3.6-4.2-7.5-8.1l-7-7l7.3-7.3c6-6,7.3-7.6,7.5-8.9c0.4-2.3-1.3-4.3-3.7-4.3c-1.6,0-2.2,0.6-9.2,7.5l-7.5,7.5l-6.9-7C168,174.2,167,173.5,164.7,174.7z"/></g></g></g>
</svg>